<svg xmlns="http://www.w3.org/2000/svg" xmlns:xlink="http://www.w3.org/1999/xlink" width="500" zoomAndPan="magnify" viewBox="0 0 375 225" height="300" preserveAspectRatio="xMidYMid meet" version="1.0"><defs><g/><clipPath id="id1"><path d="M 137.644531 0 L 243.394531 0 L 243.394531 132 L 137.644531 132 Z M 137.644531 0 " clip-rule="nonzero"/></clipPath></defs><rect x="-37.5" width="450" fill="#ffffff" y="-22.5" height="270" fill-opacity="1"/><rect x="-37.5" width="450" fill="#ffffff" y="-22.5" height="270" fill-opacity="1"/><rect x="-37.5" width="450" fill="#ffffff" y="-22.5" height="270" fill-opacity="1"/><g clip-path="url(#id1)"><path fill="#000000" d="M 190.519531 26.402344 L 190.519531 0 L 157.472656 33 L 190.519531 66 L 190.519531 39.601562 C 212.429688 39.601562 230.175781 57.320312 230.175781 79.199219 C 230.175781 101.078125 212.429688 118.800781 190.519531 118.800781 C 168.609375 118.800781 150.863281 101.078125 150.863281 79.199219 L 137.644531 79.199219 C 137.644531 108.371094 161.308594 132 190.519531 132 C 219.734375 132 243.394531 108.371094 243.394531 79.199219 C 243.394531 50.027344 219.734375 26.402344 190.519531 26.402344 Z M 190.519531 26.402344 " fill-opacity="1" fill-rule="nonzero"/></g><g fill="#8c52ff" fill-opacity="1"><g transform="translate(15.279195, 191.231121)"><g><path d="M 9.640625 0 L 3.78125 -5.84375 L 3.78125 -35.203125 L 9.640625 -41.046875 L 28.1875 -41.046875 L 33.875 -35.375 L 30.640625 -32.078125 L 26.1875 -36.546875 L 11.921875 -36.546875 L 8.859375 -33.484375 L 8.859375 -7.578125 L 11.921875 -4.515625 L 26.625 -4.515625 L 31.140625 -9.03125 L 34.375 -5.734375 L 28.578125 0 Z M 9.640625 0 "/></g></g></g><g fill="#8c52ff" fill-opacity="1"><g transform="translate(57.834154, 191.231121)"><g><path d="M 9.640625 0 L 3.78125 -5.84375 L 3.78125 -35.203125 L 9.640625 -41.046875 L 29.015625 -41.046875 L 34.875 -35.203125 L 34.875 -5.84375 L 29.015625 0 Z M 11.921875 -4.515625 L 26.734375 -4.515625 L 29.796875 -7.578125 L 29.796875 -33.484375 L 26.734375 -36.546875 L 11.921875 -36.546875 L 8.859375 -33.484375 L 8.859375 -7.578125 Z M 11.921875 -4.515625 "/></g></g></g><g fill="#8c52ff" fill-opacity="1"><g transform="translate(103.006973, 191.231121)"><g><path d="M 4.84375 0 L 4.84375 -41.046875 L 11.75 -41.046875 L 30.078125 -8.015625 L 30.078125 -41.046875 L 35.15625 -41.046875 L 35.15625 0 L 29.125 0 L 11.140625 -32.421875 L 9.921875 -32.421875 L 9.921875 0 Z M 4.84375 0 "/></g></g></g><g fill="#8c52ff" fill-opacity="1"><g transform="translate(149.516578, 191.231121)"><g><path d="M 12.921875 0 L 12.921875 -36.375 L 0.71875 -36.375 L 0.71875 -41.046875 L 30.1875 -41.046875 L 30.1875 -36.375 L 17.984375 -36.375 L 17.984375 0 Z M 12.921875 0 "/></g></g></g><g fill="#8c52ff" fill-opacity="1"><g transform="translate(186.947191, 191.231121)"><g><path d="M 4.84375 0 L 4.84375 -41.046875 L 27.296875 -41.046875 L 33.09375 -35.203125 L 33.09375 -22.109375 L 27.296875 -16.265625 L 27.125 -16.265625 L 34.53125 0 L 28.90625 0 L 21.609375 -16.265625 L 9.921875 -16.265625 L 9.921875 0 Z M 9.921875 -20.78125 L 25.015625 -20.78125 L 28.015625 -23.84375 L 28.015625 -33.484375 L 25.015625 -36.546875 L 9.921875 -36.546875 Z M 9.921875 -20.78125 "/></g></g></g><g fill="#8c52ff" fill-opacity="1"><g transform="translate(231.173122, 191.231121)"><g><path d="M 0.78125 0 L 14.65625 -41.046875 L 22.5 -41.046875 L 36.375 0 L 31.078125 0 L 27.578125 -10.6875 L 9.578125 -10.6875 L 6.125 0 Z M 11.078125 -15.15625 L 26.125 -15.15625 L 19.21875 -36.265625 L 17.9375 -36.265625 Z M 11.078125 -15.15625 "/></g></g></g><g fill="#8c52ff" fill-opacity="1"><g transform="translate(274.842058, 191.231121)"><g><path d="M 4.84375 0 L 4.84375 -41.046875 L 27.296875 -41.046875 L 33.09375 -35.203125 L 33.09375 -22.109375 L 27.296875 -16.265625 L 27.125 -16.265625 L 34.53125 0 L 28.90625 0 L 21.609375 -16.265625 L 9.921875 -16.265625 L 9.921875 0 Z M 9.921875 -20.78125 L 25.015625 -20.78125 L 28.015625 -23.84375 L 28.015625 -33.484375 L 25.015625 -36.546875 L 9.921875 -36.546875 Z M 9.921875 -20.78125 "/></g></g></g><g fill="#8c52ff" fill-opacity="1"><g transform="translate(319.068001, 191.231121)"><g><path d="M 15.09375 0 L 15.09375 -16.4375 L 0.71875 -41.046875 L 6.515625 -41.046875 L 17.046875 -22.34375 L 18.15625 -22.34375 L 28.75 -41.046875 L 34.484375 -41.046875 L 20.171875 -16.4375 L 20.171875 0 Z M 15.09375 0 "/></g></g></g><g fill="#8c52ff" fill-opacity="1"><g transform="translate(2.343244, 191.231121)"><g><path d="M 4.5625 10.421875 L 4.5625 -45.125 L 17.484375 -45.125 L 17.484375 -41.046875 L 9.46875 -41.046875 L 9.46875 6.34375 L 17.484375 6.34375 L 17.484375 10.421875 Z M 4.5625 10.421875 "/></g></g></g><g fill="#8c52ff" fill-opacity="1"><g transform="translate(353.320356, 191.231121)"><g><path d="M 1.84375 10.421875 L 1.84375 6.34375 L 9.859375 6.34375 L 9.859375 -41.046875 L 1.84375 -41.046875 L 1.84375 -45.125 L 14.765625 -45.125 L 14.765625 10.421875 Z M 1.84375 10.421875 "/></g></g></g></svg>