<svg xmlns="http://www.w3.org/2000/svg" xmlns:xlink="http://www.w3.org/1999/xlink" width="500" zoomAndPan="magnify" viewBox="0 0 375 374.999991" height="500" preserveAspectRatio="xMidYMid meet" version="1.0"><defs><g/><clipPath id="id1"><path d="M 137.644531 75 L 243.394531 75 L 243.394531 207 L 137.644531 207 Z M 137.644531 75 " clip-rule="nonzero"/></clipPath></defs><g clip-path="url(#id1)"><path fill="#000000" d="M 190.519531 101.402344 L 190.519531 75 L 157.472656 108 L 190.519531 141 L 190.519531 114.601562 C 212.429688 114.601562 230.175781 132.320312 230.175781 154.199219 C 230.175781 176.078125 212.429688 193.796875 190.519531 193.796875 C 168.609375 193.796875 150.863281 176.078125 150.863281 154.199219 L 137.644531 154.199219 C 137.644531 183.371094 161.308594 207 190.519531 207 C 219.734375 207 243.394531 183.371094 243.394531 154.199219 C 243.394531 125.027344 219.734375 101.402344 190.519531 101.402344 Z M 190.519531 101.402344 " fill-opacity="1" fill-rule="nonzero"/></g><g fill="#8c52ff" fill-opacity="1"><g transform="translate(15.279199, 266.231102)"><g><path d="M 9.640625 0 L 3.78125 -5.84375 L 3.78125 -35.203125 L 9.640625 -41.046875 L 28.1875 -41.046875 L 33.875 -35.375 L 30.640625 -32.078125 L 26.1875 -36.546875 L 11.921875 -36.546875 L 8.859375 -33.484375 L 8.859375 -7.578125 L 11.921875 -4.515625 L 26.625 -4.515625 L 31.140625 -9.03125 L 34.375 -5.734375 L 28.578125 0 Z M 9.640625 0 "/></g></g></g><g fill="#8c52ff" fill-opacity="1"><g transform="translate(57.834157, 266.231102)"><g><path d="M 9.640625 0 L 3.78125 -5.84375 L 3.78125 -35.203125 L 9.640625 -41.046875 L 29.015625 -41.046875 L 34.875 -35.203125 L 34.875 -5.84375 L 29.015625 0 Z M 11.921875 -4.515625 L 26.734375 -4.515625 L 29.796875 -7.578125 L 29.796875 -33.484375 L 26.734375 -36.546875 L 11.921875 -36.546875 L 8.859375 -33.484375 L 8.859375 -7.578125 Z M 11.921875 -4.515625 "/></g></g></g><g fill="#8c52ff" fill-opacity="1"><g transform="translate(103.006975, 266.231102)"><g><path d="M 4.84375 0 L 4.84375 -41.046875 L 11.75 -41.046875 L 30.078125 -8.015625 L 30.078125 -41.046875 L 35.15625 -41.046875 L 35.15625 0 L 29.125 0 L 11.140625 -32.421875 L 9.921875 -32.421875 L 9.921875 0 Z M 4.84375 0 "/></g></g></g><g fill="#8c52ff" fill-opacity="1"><g transform="translate(149.516579, 266.231102)"><g><path d="M 12.921875 0 L 12.921875 -36.375 L 0.71875 -36.375 L 0.71875 -41.046875 L 30.1875 -41.046875 L 30.1875 -36.375 L 17.984375 -36.375 L 17.984375 0 Z M 12.921875 0 "/></g></g></g><g fill="#8c52ff" fill-opacity="1"><g transform="translate(186.947191, 266.231102)"><g><path d="M 4.84375 0 L 4.84375 -41.046875 L 27.296875 -41.046875 L 33.09375 -35.203125 L 33.09375 -22.109375 L 27.296875 -16.265625 L 27.125 -16.265625 L 34.53125 0 L 28.90625 0 L 21.609375 -16.265625 L 9.921875 -16.265625 L 9.921875 0 Z M 9.921875 -20.78125 L 25.015625 -20.78125 L 28.015625 -23.84375 L 28.015625 -33.484375 L 25.015625 -36.546875 L 9.921875 -36.546875 Z M 9.921875 -20.78125 "/></g></g></g><g fill="#8c52ff" fill-opacity="1"><g transform="translate(231.173121, 266.231102)"><g><path d="M 0.78125 0 L 14.65625 -41.046875 L 22.5 -41.046875 L 36.375 0 L 31.078125 0 L 27.578125 -10.6875 L 9.578125 -10.6875 L 6.125 0 Z M 11.078125 -15.15625 L 26.125 -15.15625 L 19.21875 -36.265625 L 17.9375 -36.265625 Z M 11.078125 -15.15625 "/></g></g></g><g fill="#8c52ff" fill-opacity="1"><g transform="translate(274.842056, 266.231102)"><g><path d="M 4.84375 0 L 4.84375 -41.046875 L 27.296875 -41.046875 L 33.09375 -35.203125 L 33.09375 -22.109375 L 27.296875 -16.265625 L 27.125 -16.265625 L 34.53125 0 L 28.90625 0 L 21.609375 -16.265625 L 9.921875 -16.265625 L 9.921875 0 Z M 9.921875 -20.78125 L 25.015625 -20.78125 L 28.015625 -23.84375 L 28.015625 -33.484375 L 25.015625 -36.546875 L 9.921875 -36.546875 Z M 9.921875 -20.78125 "/></g></g></g><g fill="#8c52ff" fill-opacity="1"><g transform="translate(319.067998, 266.231102)"><g><path d="M 15.09375 0 L 15.09375 -16.4375 L 0.71875 -41.046875 L 6.515625 -41.046875 L 17.046875 -22.34375 L 18.15625 -22.34375 L 28.75 -41.046875 L 34.484375 -41.046875 L 20.171875 -16.4375 L 20.171875 0 Z M 15.09375 0 "/></g></g></g><g fill="#8c52ff" fill-opacity="1"><g transform="translate(2.343249, 266.231102)"><g><path d="M 4.5625 10.421875 L 4.5625 -45.125 L 17.484375 -45.125 L 17.484375 -41.046875 L 9.46875 -41.046875 L 9.46875 6.34375 L 17.484375 6.34375 L 17.484375 10.421875 Z M 4.5625 10.421875 "/></g></g></g><g fill="#8c52ff" fill-opacity="1"><g transform="translate(353.320352, 266.231102)"><g><path d="M 1.84375 10.421875 L 1.84375 6.34375 L 9.859375 6.34375 L 9.859375 -41.046875 L 1.84375 -41.046875 L 1.84375 -45.125 L 14.765625 -45.125 L 14.765625 10.421875 Z M 1.84375 10.421875 "/></g></g></g></svg>